<svg width="107" height="107" viewBox="0 0 107 107" fill="none" xmlns="http://www.w3.org/2000/svg">
<rect width="107" height="107" rx="20" fill="white"/>
<g filter="url(#filter0_d_45_156)">
<path d="M30.505 83.7V72.36H35.37V40.79H30.505V29.45H49.37V44.185L49.16 48.35V50.24L49.37 56.75V72.36H53.92V83.7H30.505ZM61.9 69.805C59.17 69.805 56.6033 69.1983 54.2 67.985C51.7967 66.7717 49.65 64.905 47.76 62.385C45.8933 59.8417 44.3883 56.5983 43.245 52.655L49.16 49.295C49.16 50.9983 49.475 52.4917 50.105 53.775C50.735 55.035 51.6333 56.0267 52.8 56.75C53.9667 57.45 55.3667 57.8 57 57.8C58.61 57.8 59.9983 57.45 61.165 56.75C62.355 56.0267 63.265 55.0233 63.895 53.74C64.525 52.4567 64.84 50.9517 64.84 49.225C64.84 47.4983 64.5133 46.005 63.86 44.745C63.2067 43.4617 62.2967 42.47 61.13 41.77C59.9633 41.0467 58.5867 40.685 57 40.685C55.39 40.685 53.99 41.0467 52.8 41.77C51.6333 42.47 50.735 43.4617 50.105 44.745C49.475 46.0283 49.16 47.545 49.16 49.295L48.18 40.93H49.86C50.3033 38.2 51.0267 35.925 52.03 34.105C53.0567 32.285 54.3983 30.92 56.055 30.01C57.7117 29.1 59.73 28.645 62.11 28.645C64.84 28.645 67.2667 29.205 69.39 30.325C71.5133 31.445 73.31 32.9733 74.78 34.91C76.25 36.8233 77.3583 39.0167 78.105 41.49C78.875 43.94 79.26 46.5183 79.26 49.225C79.26 53.5183 78.525 57.205 77.055 60.285C75.585 63.365 73.5433 65.7217 70.93 67.355C68.3167 68.9883 65.3067 69.805 61.9 69.805Z" fill="black"/>
</g>
<defs>
<filter id="filter0_d_45_156" x="30.5049" y="28.645" width="54.7549" height="55.0549" filterUnits="userSpaceOnUse" color-interpolation-filters="sRGB">
<feFlood flood-opacity="0" result="BackgroundImageFix"/>
<feColorMatrix in="SourceAlpha" type="matrix" values="0 0 0 0 0 0 0 0 0 0 0 0 0 0 0 0 0 0 127 0" result="hardAlpha"/>
<feOffset dx="6"/>
<feComposite in2="hardAlpha" operator="out"/>
<feColorMatrix type="matrix" values="0 0 0 0 0.529412 0 0 0 0 0.831373 0 0 0 0 0.996078 0 0 0 1 0"/>
<feBlend mode="normal" in2="BackgroundImageFix" result="effect1_dropShadow_45_156"/>
<feBlend mode="normal" in="SourceGraphic" in2="effect1_dropShadow_45_156" result="shape"/>
</filter>
</defs>
</svg>
