<svg width="426" height="179" viewBox="0 0 426 179" fill="none" xmlns="http://www.w3.org/2000/svg">
<rect x="27" y="75" width="373" height="104" rx="20" fill="#333232"/>
<rect x="47.5" y="95.5" width="15" height="15" rx="2.5" fill="white"/>
<rect x="47.5" y="95.5" width="15" height="15" rx="2.5" stroke="white"/>
<path d="M77.009 108.5H75.98V98.42H79.872C80.068 98.42 80.327 98.434 80.579 98.476C82.154 98.721 83.036 99.974 83.036 101.549C83.036 103.117 82.147 104.377 80.579 104.615C80.327 104.657 80.061 104.671 79.872 104.671H77.009V108.5ZM77.009 99.407V103.691H79.844C80.012 103.691 80.257 103.677 80.467 103.628C81.503 103.411 81.979 102.487 81.979 101.549C81.979 100.611 81.503 99.687 80.467 99.463C80.257 99.421 80.012 99.407 79.844 99.407H77.009ZM91.0105 105.007H85.0535C85.1375 106.736 86.0265 107.723 87.5315 107.723C88.6095 107.723 89.4355 107.212 89.9045 106.267L90.8635 106.638C90.2615 107.961 89.0365 108.71 87.5735 108.71C85.3685 108.71 83.9545 107.149 83.9545 104.755C83.9545 102.277 85.3475 100.73 87.5315 100.73C89.7715 100.73 91.0875 102.34 91.0105 105.007ZM87.5595 101.675C86.1035 101.675 85.2355 102.557 85.0745 104.146H89.9325C89.7715 102.515 88.9665 101.675 87.5595 101.675ZM99.2 105.007H93.243C93.327 106.736 94.216 107.723 95.721 107.723C96.799 107.723 97.625 107.212 98.094 106.267L99.053 106.638C98.451 107.961 97.226 108.71 95.763 108.71C93.558 108.71 92.144 107.149 92.144 104.755C92.144 102.277 93.537 100.73 95.721 100.73C97.961 100.73 99.277 102.34 99.2 105.007ZM95.749 101.675C94.293 101.675 93.425 102.557 93.264 104.146H98.122C97.961 102.515 97.156 101.675 95.749 101.675ZM103.985 100.73C106.057 100.73 107.296 102.459 107.296 104.713C107.296 106.981 106.064 108.71 103.943 108.71C102.921 108.71 102.123 108.29 101.577 107.597V111.86H100.541V100.94H101.465V101.983C102.018 101.199 102.865 100.73 103.985 100.73ZM103.838 107.751C105.413 107.751 106.204 106.435 106.204 104.713C106.204 103.005 105.441 101.689 103.817 101.689C102.242 101.689 101.465 102.935 101.465 104.713C101.465 106.463 102.228 107.751 103.838 107.751Z" fill="white"/>
<circle cx="115.5" cy="103" r="1.5" fill="#D9D9D9"/>
<path d="M127.445 100.751C129.713 100.751 130.476 102.641 130.476 104.342V108.5H129.44V104.643C129.44 102.977 128.831 101.731 127.249 101.731C125.793 101.731 125.009 102.76 125.009 104.468V108.5H123.973V100.94H124.904V101.99C125.464 101.171 126.36 100.751 127.445 100.751ZM135.395 108.71C133.141 108.71 131.818 107.058 131.818 104.713C131.818 102.333 133.183 100.73 135.395 100.73C137.663 100.73 138.979 102.375 138.979 104.713C138.979 107.093 137.635 108.71 135.395 108.71ZM135.395 107.723C137.075 107.723 137.887 106.498 137.887 104.713C137.887 102.893 137.061 101.717 135.395 101.717C133.701 101.717 132.91 102.949 132.91 104.713C132.91 106.533 133.757 107.723 135.395 107.723ZM142.756 108.5H141.86L139.55 100.933L140.579 100.94L142.371 106.813L144.17 100.94H145.108L146.907 106.813L148.713 100.94H149.735L147.425 108.5H146.529L144.639 102.48L142.756 108.5Z" fill="white"/>
<path d="M48.722 141.5H47.84V132.86H51.176C51.344 132.86 51.566 132.872 51.782 132.908C53.132 133.118 53.888 134.192 53.888 135.542C53.888 136.886 53.126 137.966 51.782 138.17C51.566 138.206 51.338 138.218 51.176 138.218H48.722V141.5ZM48.722 133.706V137.378H51.152C51.296 137.378 51.506 137.366 51.686 137.324C52.574 137.138 52.982 136.346 52.982 135.542C52.982 134.738 52.574 133.946 51.686 133.754C51.506 133.718 51.296 133.706 51.152 133.706H48.722ZM60.7233 138.506H55.6173C55.6893 139.988 56.4513 140.834 57.7413 140.834C58.6653 140.834 59.3733 140.396 59.7753 139.586L60.5973 139.904C60.0813 141.038 59.0313 141.68 57.7773 141.68C55.8873 141.68 54.6753 140.342 54.6753 138.29C54.6753 136.166 55.8693 134.84 57.7413 134.84C59.6613 134.84 60.7893 136.22 60.7233 138.506ZM57.7653 135.65C56.5173 135.65 55.7733 136.406 55.6353 137.768H59.7993C59.6613 136.37 58.9713 135.65 57.7653 135.65ZM67.7428 138.506H62.6368C62.7088 139.988 63.4708 140.834 64.7608 140.834C65.6848 140.834 66.3928 140.396 66.7948 139.586L67.6168 139.904C67.1008 141.038 66.0508 141.68 64.7968 141.68C62.9068 141.68 61.6948 140.342 61.6948 138.29C61.6948 136.166 62.8888 134.84 64.7608 134.84C66.6808 134.84 67.8088 136.22 67.7428 138.506ZM64.7848 135.65C63.5368 135.65 62.7928 136.406 62.6548 137.768H66.8188C66.6808 136.37 65.9908 135.65 64.7848 135.65ZM71.8446 134.84C73.6206 134.84 74.6826 136.322 74.6826 138.254C74.6826 140.198 73.6266 141.68 71.8086 141.68C70.9326 141.68 70.2486 141.32 69.7806 140.726V144.38H68.8926V135.02H69.6846V135.914C70.1586 135.242 70.8846 134.84 71.8446 134.84ZM71.7186 140.858C73.0686 140.858 73.7466 139.73 73.7466 138.254C73.7466 136.79 73.0926 135.662 71.7006 135.662C70.3506 135.662 69.6846 136.73 69.6846 138.254C69.6846 139.754 70.3386 140.858 71.7186 140.858ZM76.4438 141.566C76.0958 141.566 75.8318 141.302 75.8318 140.96C75.8318 140.612 76.0958 140.348 76.4438 140.348C76.7918 140.348 77.0618 140.612 77.0618 140.96C77.0618 141.302 76.7918 141.566 76.4438 141.566ZM84.5007 138.506H79.3947C79.4667 139.988 80.2287 140.834 81.5187 140.834C82.4427 140.834 83.1507 140.396 83.5527 139.586L84.3747 139.904C83.8587 141.038 82.8087 141.68 81.5547 141.68C79.6647 141.68 78.4527 140.342 78.4527 138.29C78.4527 136.166 79.6467 134.84 81.5187 134.84C83.4387 134.84 84.5667 136.22 84.5007 138.506ZM81.5427 135.65C80.2947 135.65 79.5507 136.406 79.4127 137.768H83.5767C83.4387 136.37 82.7487 135.65 81.5427 135.65ZM92.1184 134.846C93.4264 134.846 94.2724 135.71 94.2724 137.078L94.2664 141.5H93.3844L93.3904 137.246C93.3904 136.244 92.7664 135.638 91.9144 135.638C91.1764 135.638 90.4024 136.112 90.4024 137.318L90.3964 141.5H89.5264L89.5324 137.306C89.5324 136.274 88.9324 135.638 88.0384 135.638C87.1384 135.638 86.5384 136.304 86.5384 137.318V141.5H85.6504V135.02H86.4424V135.704C86.8444 135.176 87.4984 134.846 88.2664 134.846C89.1184 134.846 89.8084 135.23 90.1564 135.938C90.5344 135.254 91.2544 134.846 92.1184 134.846ZM100.742 136.136C100.898 136.514 100.934 136.994 100.934 137.474V141.5H100.148V140.426C99.6443 141.248 98.7863 141.68 97.6823 141.68C96.2123 141.68 95.4683 140.792 95.4683 139.76C95.4683 138.698 96.1523 138.134 97.1183 137.876C97.9943 137.666 99.2063 137.528 100.07 137.408C100.058 136.238 99.5723 135.674 98.3423 135.674C97.4543 135.674 96.8183 136.058 96.5723 136.922L95.7143 136.67C96.0143 135.512 96.9263 134.84 98.3543 134.84C99.5363 134.84 100.4 135.296 100.742 136.136ZM97.7843 140.918C99.0203 140.918 99.8063 140.192 99.9743 139.214C100.046 138.896 100.058 138.476 100.058 138.182C99.2063 138.284 98.1863 138.386 97.4723 138.584C96.9203 138.746 96.3503 139.058 96.3503 139.76C96.3503 140.324 96.7403 140.918 97.7843 140.918ZM103.054 133.904C102.706 133.904 102.442 133.64 102.442 133.298C102.442 132.95 102.706 132.686 103.054 132.686C103.402 132.686 103.672 132.95 103.672 133.298C103.672 133.64 103.402 133.904 103.054 133.904ZM103.498 141.5H102.616V135.02H103.498V141.5ZM106.299 141.5H105.417V132.68H106.299V141.5ZM116.188 138.506H111.082C111.154 139.988 111.916 140.834 113.206 140.834C114.13 140.834 114.838 140.396 115.24 139.586L116.062 139.904C115.546 141.038 114.496 141.68 113.242 141.68C111.352 141.68 110.14 140.342 110.14 138.29C110.14 136.166 111.334 134.84 113.206 134.84C115.126 134.84 116.254 136.22 116.188 138.506ZM113.23 135.65C111.982 135.65 111.238 136.406 111.1 137.768H115.264C115.126 136.37 114.436 135.65 113.23 135.65ZM120.314 134.858C122.258 134.858 122.912 136.478 122.912 137.936V141.5H122.024V138.194C122.024 136.766 121.502 135.698 120.146 135.698C118.898 135.698 118.226 136.58 118.226 138.044V141.5H117.338V135.02H118.136V135.92C118.616 135.218 119.384 134.858 120.314 134.858ZM126.887 141.674C125.369 141.674 124.331 140.984 124.109 139.814L125.009 139.664C125.195 140.402 125.927 140.87 126.935 140.87C127.919 140.87 128.525 140.426 128.525 139.718C128.525 139.118 128.249 138.938 126.605 138.494C124.847 138.02 124.307 137.594 124.307 136.688C124.307 135.584 125.303 134.84 126.767 134.84C128.231 134.84 129.299 135.602 129.431 136.73L128.531 136.892C128.405 136.13 127.727 135.662 126.755 135.644C125.837 135.626 125.201 136.034 125.201 136.646C125.201 137.162 125.567 137.402 127.097 137.786C128.885 138.242 129.443 138.704 129.443 139.706C129.443 140.93 128.477 141.674 126.887 141.674ZM135.34 138.476V135.02H136.222V141.5H135.43V140.6C134.95 141.302 134.182 141.662 133.252 141.662C131.308 141.662 130.654 140.042 130.654 138.584V135.02H131.542V138.326C131.542 139.754 132.064 140.822 133.42 140.822C134.668 140.822 135.34 139.94 135.34 138.476ZM139.195 135.446C139.705 135.002 140.515 134.876 141.085 135.02V135.848C140.605 135.734 140.005 135.758 139.537 136.142C138.889 136.652 138.781 137.492 138.781 138.266V141.5H137.899V135.02H138.691V136.046C138.829 135.8 139.009 135.59 139.195 135.446ZM147.794 138.506H142.688C142.76 139.988 143.522 140.834 144.812 140.834C145.736 140.834 146.444 140.396 146.846 139.586L147.668 139.904C147.152 141.038 146.102 141.68 144.848 141.68C142.958 141.68 141.746 140.342 141.746 138.29C141.746 136.166 142.94 134.84 144.812 134.84C146.732 134.84 147.86 136.22 147.794 138.506ZM144.836 135.65C143.588 135.65 142.844 136.406 142.706 137.768H146.87C146.732 136.37 146.042 135.65 144.836 135.65ZM151.543 141.674C150.025 141.674 148.987 140.984 148.765 139.814L149.665 139.664C149.851 140.402 150.583 140.87 151.591 140.87C152.575 140.87 153.181 140.426 153.181 139.718C153.181 139.118 152.905 138.938 151.261 138.494C149.503 138.02 148.963 137.594 148.963 136.688C148.963 135.584 149.959 134.84 151.423 134.84C152.887 134.84 153.955 135.602 154.087 136.73L153.187 136.892C153.061 136.13 152.383 135.662 151.411 135.644C150.493 135.626 149.857 136.034 149.857 136.646C149.857 137.162 150.223 137.402 151.753 137.786C153.541 138.242 154.099 138.704 154.099 139.706C154.099 140.93 153.133 141.674 151.543 141.674ZM158.126 135.02L160.25 140.348L162.218 135.02H163.118L159.638 144.38H158.756L159.824 141.488L157.19 135.02H158.126ZM166.632 141.68C164.7 141.68 163.566 140.264 163.566 138.254C163.566 136.214 164.736 134.84 166.632 134.84C168.576 134.84 169.704 136.25 169.704 138.254C169.704 140.294 168.552 141.68 166.632 141.68ZM166.632 140.834C168.072 140.834 168.768 139.784 168.768 138.254C168.768 136.694 168.06 135.686 166.632 135.686C165.18 135.686 164.502 136.742 164.502 138.254C164.502 139.814 165.228 140.834 166.632 140.834ZM175.594 138.476V135.02H176.476V141.5H175.684V140.6C175.204 141.302 174.436 141.662 173.506 141.662C171.562 141.662 170.908 140.042 170.908 138.584V135.02H171.796V138.326C171.796 139.754 172.318 140.822 173.674 140.822C174.922 140.822 175.594 139.94 175.594 138.476ZM179.449 135.446C179.959 135.002 180.769 134.876 181.339 135.02V135.848C180.859 135.734 180.259 135.758 179.791 136.142C179.143 136.652 179.035 137.492 179.035 138.266V141.5H178.153V135.02H178.945V136.046C179.083 135.8 179.263 135.59 179.449 135.446ZM190.567 138.506H185.461C185.533 139.988 186.295 140.834 187.585 140.834C188.509 140.834 189.217 140.396 189.619 139.586L190.441 139.904C189.925 141.038 188.875 141.68 187.621 141.68C185.731 141.68 184.519 140.342 184.519 138.29C184.519 136.166 185.713 134.84 187.585 134.84C189.505 134.84 190.633 136.22 190.567 138.506ZM187.609 135.65C186.361 135.65 185.617 136.406 185.479 137.768H189.643C189.505 136.37 188.815 135.65 187.609 135.65ZM198.185 134.846C199.493 134.846 200.339 135.71 200.339 137.078L200.333 141.5H199.451L199.457 137.246C199.457 136.244 198.833 135.638 197.981 135.638C197.243 135.638 196.469 136.112 196.469 137.318L196.463 141.5H195.593L195.599 137.306C195.599 136.274 194.999 135.638 194.105 135.638C193.205 135.638 192.605 136.304 192.605 137.318V141.5H191.717V135.02H192.509V135.704C192.911 135.176 193.565 134.846 194.333 134.846C195.185 134.846 195.875 135.23 196.223 135.938C196.601 135.254 197.321 134.846 198.185 134.846ZM206.809 136.136C206.965 136.514 207.001 136.994 207.001 137.474V141.5H206.215V140.426C205.711 141.248 204.853 141.68 203.749 141.68C202.279 141.68 201.535 140.792 201.535 139.76C201.535 138.698 202.219 138.134 203.185 137.876C204.061 137.666 205.273 137.528 206.137 137.408C206.125 136.238 205.639 135.674 204.409 135.674C203.521 135.674 202.885 136.058 202.639 136.922L201.781 136.67C202.081 135.512 202.993 134.84 204.421 134.84C205.603 134.84 206.467 135.296 206.809 136.136ZM203.851 140.918C205.087 140.918 205.873 140.192 206.041 139.214C206.113 138.896 206.125 138.476 206.125 138.182C205.273 138.284 204.253 138.386 203.539 138.584C202.987 138.746 202.417 139.058 202.417 139.76C202.417 140.324 202.807 140.918 203.851 140.918ZM209.121 133.904C208.773 133.904 208.509 133.64 208.509 133.298C208.509 132.95 208.773 132.686 209.121 132.686C209.469 132.686 209.739 132.95 209.739 133.298C209.739 133.64 209.469 133.904 209.121 133.904ZM209.565 141.5H208.683V135.02H209.565V141.5ZM212.365 141.5H211.483V132.68H212.365V141.5ZM219.537 134.858C221.481 134.858 222.135 136.478 222.135 137.936V141.5H221.247V138.194C221.247 136.766 220.725 135.698 219.369 135.698C218.121 135.698 217.449 136.58 217.449 138.044V141.5H216.561V135.02H217.359V135.92C217.839 135.218 218.607 134.858 219.537 134.858ZM226.351 141.68C224.419 141.68 223.285 140.264 223.285 138.254C223.285 136.214 224.455 134.84 226.351 134.84C228.295 134.84 229.423 136.25 229.423 138.254C229.423 140.294 228.271 141.68 226.351 141.68ZM226.351 140.834C227.791 140.834 228.487 139.784 228.487 138.254C228.487 136.694 227.779 135.686 226.351 135.686C224.899 135.686 224.221 136.742 224.221 138.254C224.221 139.814 224.947 140.834 226.351 140.834ZM234.274 135.776H232.288V139.118C232.288 139.664 232.264 140.006 232.42 140.282C232.708 140.822 233.344 140.876 234.274 140.726V141.5C233.176 141.728 232.042 141.59 231.616 140.726C231.382 140.252 231.412 139.79 231.412 139.154V135.776H230.026V135.02H231.412V133.22H232.288V135.02H234.274V135.776ZM236.109 133.904C235.761 133.904 235.497 133.64 235.497 133.298C235.497 132.95 235.761 132.686 236.109 132.686C236.457 132.686 236.727 132.95 236.727 133.298C236.727 133.64 236.457 133.904 236.109 133.904ZM236.553 141.5H235.671V135.02H236.553V141.5ZM239.396 133.154C239.786 132.728 240.32 132.68 240.818 132.68H241.646V133.424H240.878C240.206 133.424 239.876 133.742 239.876 134.444V135.02H241.646V135.776H239.876V141.5H238.994V135.776H237.872V135.02H238.994V134.54C238.994 134.042 239.042 133.538 239.396 133.154ZM243.344 132.686C243.692 132.686 243.962 132.95 243.962 133.298C243.962 133.64 243.692 133.904 243.344 133.904C242.996 133.904 242.732 133.64 242.732 133.298C242.732 132.95 242.996 132.686 243.344 132.686ZM243.788 141.5H242.906V135.02H243.788V141.5ZM248.27 141.68C246.308 141.68 245.246 140.258 245.222 138.26C245.246 136.22 246.338 134.84 248.276 134.84C249.584 134.84 250.628 135.524 250.988 136.634L250.124 136.91C249.818 136.136 249.116 135.686 248.27 135.686C246.836 135.686 246.176 136.748 246.158 138.26C246.176 139.814 246.878 140.834 248.27 140.834C249.146 140.834 249.776 140.426 250.1 139.646L250.988 139.91C250.502 141.062 249.554 141.68 248.27 141.68ZM257.094 136.136C257.25 136.514 257.286 136.994 257.286 137.474V141.5H256.5V140.426C255.996 141.248 255.138 141.68 254.034 141.68C252.564 141.68 251.82 140.792 251.82 139.76C251.82 138.698 252.504 138.134 253.47 137.876C254.346 137.666 255.558 137.528 256.422 137.408C256.41 136.238 255.924 135.674 254.694 135.674C253.806 135.674 253.17 136.058 252.924 136.922L252.066 136.67C252.366 135.512 253.278 134.84 254.706 134.84C255.888 134.84 256.752 135.296 257.094 136.136ZM254.136 140.918C255.372 140.918 256.158 140.192 256.326 139.214C256.398 138.896 256.41 138.476 256.41 138.182C255.558 138.284 254.538 138.386 253.824 138.584C253.272 138.746 252.702 139.058 252.702 139.76C252.702 140.324 253.092 140.918 254.136 140.918ZM262.376 135.776H260.39V139.118C260.39 139.664 260.366 140.006 260.522 140.282C260.81 140.822 261.446 140.876 262.376 140.726V141.5C261.278 141.728 260.144 141.59 259.718 140.726C259.484 140.252 259.514 139.79 259.514 139.154V135.776H258.128V135.02H259.514V133.22H260.39V135.02H262.376V135.776ZM264.211 133.904C263.863 133.904 263.599 133.64 263.599 133.298C263.599 132.95 263.863 132.686 264.211 132.686C264.559 132.686 264.829 132.95 264.829 133.298C264.829 133.64 264.559 133.904 264.211 133.904ZM264.655 141.5H263.773V135.02H264.655V141.5ZM269.159 141.68C267.227 141.68 266.093 140.264 266.093 138.254C266.093 136.214 267.263 134.84 269.159 134.84C271.103 134.84 272.231 136.25 272.231 138.254C272.231 140.294 271.079 141.68 269.159 141.68ZM269.159 140.834C270.599 140.834 271.295 139.784 271.295 138.254C271.295 136.694 270.587 135.686 269.159 135.686C267.707 135.686 267.029 136.742 267.029 138.254C267.029 139.814 267.755 140.834 269.159 140.834ZM276.525 134.858C278.469 134.858 279.123 136.478 279.123 137.936V141.5H278.235V138.194C278.235 136.766 277.713 135.698 276.357 135.698C275.109 135.698 274.437 136.58 274.437 138.044V141.5H273.549V135.02H274.347V135.92C274.827 135.218 275.595 134.858 276.525 134.858ZM283.098 141.674C281.58 141.674 280.542 140.984 280.32 139.814L281.22 139.664C281.406 140.402 282.138 140.87 283.146 140.87C284.13 140.87 284.736 140.426 284.736 139.718C284.736 139.118 284.46 138.938 282.816 138.494C281.058 138.02 280.518 137.594 280.518 136.688C280.518 135.584 281.514 134.84 282.978 134.84C284.442 134.84 285.51 135.602 285.642 136.73L284.742 136.892C284.616 136.13 283.938 135.662 282.966 135.644C282.048 135.626 281.412 136.034 281.412 136.646C281.412 137.162 281.778 137.402 283.308 137.786C285.096 138.242 285.654 138.704 285.654 139.706C285.654 140.93 284.688 141.674 283.098 141.674ZM294.301 136.136C294.457 136.514 294.493 136.994 294.493 137.474V141.5H293.707V140.426C293.203 141.248 292.345 141.68 291.241 141.68C289.771 141.68 289.027 140.792 289.027 139.76C289.027 138.698 289.711 138.134 290.677 137.876C291.553 137.666 292.765 137.528 293.629 137.408C293.617 136.238 293.131 135.674 291.901 135.674C291.013 135.674 290.377 136.058 290.131 136.922L289.273 136.67C289.573 135.512 290.485 134.84 291.913 134.84C293.095 134.84 293.959 135.296 294.301 136.136ZM291.343 140.918C292.579 140.918 293.365 140.192 293.533 139.214C293.605 138.896 293.617 138.476 293.617 138.182C292.765 138.284 291.745 138.386 291.031 138.584C290.479 138.746 289.909 139.058 289.909 139.76C289.909 140.324 290.299 140.918 291.343 140.918ZM297.351 135.446C297.861 135.002 298.671 134.876 299.241 135.02V135.848C298.761 135.734 298.161 135.758 297.693 136.142C297.045 136.652 296.937 137.492 296.937 138.266V141.5H296.055V135.02H296.847V136.046C296.985 135.8 297.165 135.59 297.351 135.446ZM305.95 138.506H300.844C300.916 139.988 301.678 140.834 302.968 140.834C303.892 140.834 304.6 140.396 305.002 139.586L305.824 139.904C305.308 141.038 304.258 141.68 303.004 141.68C301.114 141.68 299.902 140.342 299.902 138.29C299.902 136.166 301.096 134.84 302.968 134.84C304.888 134.84 306.016 136.22 305.95 138.506ZM302.992 135.65C301.744 135.65 301 136.406 300.862 137.768H305.026C304.888 136.37 304.198 135.65 302.992 135.65ZM314.598 136.136C314.754 136.514 314.79 136.994 314.79 137.474V141.5H314.004V140.426C313.5 141.248 312.642 141.68 311.538 141.68C310.068 141.68 309.324 140.792 309.324 139.76C309.324 138.698 310.008 138.134 310.974 137.876C311.85 137.666 313.062 137.528 313.926 137.408C313.914 136.238 313.428 135.674 312.198 135.674C311.31 135.674 310.674 136.058 310.428 136.922L309.57 136.67C309.87 135.512 310.782 134.84 312.21 134.84C313.392 134.84 314.256 135.296 314.598 136.136ZM311.64 140.918C312.876 140.918 313.662 140.192 313.83 139.214C313.902 138.896 313.914 138.476 313.914 138.182C313.062 138.284 312.042 138.386 311.328 138.584C310.776 138.746 310.206 139.058 310.206 139.76C310.206 140.324 310.596 140.918 311.64 140.918ZM317.354 141.5H316.472V132.68H317.354V141.5ZM321.301 141.5H320.533L318.553 135.014L319.435 135.02L320.971 140.054L322.513 135.02H323.317L324.859 140.054L326.407 135.02H327.283L325.303 141.5H324.535L322.915 136.34L321.301 141.5ZM332.914 136.136C333.07 136.514 333.106 136.994 333.106 137.474V141.5H332.32V140.426C331.816 141.248 330.958 141.68 329.854 141.68C328.384 141.68 327.64 140.792 327.64 139.76C327.64 138.698 328.324 138.134 329.29 137.876C330.166 137.666 331.378 137.528 332.242 137.408C332.23 136.238 331.744 135.674 330.514 135.674C329.626 135.674 328.99 136.058 328.744 136.922L327.886 136.67C328.186 135.512 329.098 134.84 330.526 134.84C331.708 134.84 332.572 135.296 332.914 136.136ZM329.956 140.918C331.192 140.918 331.978 140.192 332.146 139.214C332.218 138.896 332.23 138.476 332.23 138.182C331.378 138.284 330.358 138.386 329.644 138.584C329.092 138.746 328.522 139.058 328.522 139.76C328.522 140.324 328.912 140.918 329.956 140.918ZM334.599 135.02L336.723 140.348L338.691 135.02H339.591L336.111 144.38H335.229L336.297 141.488L333.663 135.02H334.599ZM343.051 141.674C341.533 141.674 340.495 140.984 340.273 139.814L341.173 139.664C341.359 140.402 342.091 140.87 343.099 140.87C344.083 140.87 344.689 140.426 344.689 139.718C344.689 139.118 344.413 138.938 342.769 138.494C341.011 138.02 340.471 137.594 340.471 136.688C340.471 135.584 341.467 134.84 342.931 134.84C344.395 134.84 345.463 135.602 345.595 136.73L344.695 136.892C344.569 136.13 343.891 135.662 342.919 135.644C342.001 135.626 341.365 136.034 341.365 136.646C341.365 137.162 341.731 137.402 343.261 137.786C345.049 138.242 345.607 138.704 345.607 139.706C345.607 140.93 344.641 141.674 343.051 141.674ZM352.634 133.424H351.866C351.194 133.424 350.864 133.742 350.864 134.444V135.02H352.634V135.776H350.864V141.5H349.982V135.776H348.86V135.02H349.982V134.54C349.982 134.042 350.03 133.538 350.384 133.154C350.774 132.728 351.308 132.68 351.806 132.68H352.634V133.424ZM356.066 141.68C354.134 141.68 353 140.264 353 138.254C353 136.214 354.17 134.84 356.066 134.84C358.01 134.84 359.138 136.25 359.138 138.254C359.138 140.294 357.986 141.68 356.066 141.68ZM356.066 140.834C357.506 140.834 358.202 139.784 358.202 138.254C358.202 136.694 357.494 135.686 356.066 135.686C354.614 135.686 353.936 136.742 353.936 138.254C353.936 139.814 354.662 140.834 356.066 140.834ZM361.757 135.446C362.267 135.002 363.077 134.876 363.647 135.02V135.848C363.167 135.734 362.567 135.758 362.099 136.142C361.451 136.652 361.343 137.492 361.343 138.266V141.5H360.461V135.02H361.253V136.046C361.391 135.8 361.571 135.59 361.757 135.446ZM49.988 157.5H49.22L47.24 151.014L48.122 151.02L49.658 156.054L51.2 151.02H52.004L53.546 156.054L55.094 151.02H55.97L53.99 157.5H53.222L51.602 152.34L49.988 157.5ZM60.0209 150.858C61.9649 150.858 62.6189 152.478 62.6189 153.936V157.5H61.7309V154.194C61.7309 152.766 61.2089 151.698 59.8529 151.698C58.6049 151.698 57.9329 152.58 57.9329 154.044V157.5H57.0449V148.86H57.8429V151.92C58.3229 151.218 59.0909 150.858 60.0209 150.858ZM69.0899 152.136C69.2459 152.514 69.2819 152.994 69.2819 153.474V157.5H68.4959V156.426C67.9919 157.248 67.1339 157.68 66.0299 157.68C64.5599 157.68 63.8159 156.792 63.8159 155.76C63.8159 154.698 64.4999 154.134 65.4659 153.876C66.3419 153.666 67.5539 153.528 68.4179 153.408C68.4059 152.238 67.9199 151.674 66.6899 151.674C65.8019 151.674 65.1659 152.058 64.9199 152.922L64.0619 152.67C64.3619 151.512 65.2739 150.84 66.7019 150.84C67.8839 150.84 68.7479 151.296 69.0899 152.136ZM66.1319 156.918C67.3679 156.918 68.1539 156.192 68.3219 155.214C68.3939 154.896 68.4059 154.476 68.4059 154.182C67.5539 154.284 66.5339 154.386 65.8199 154.584C65.2679 154.746 64.6979 155.058 64.6979 155.76C64.6979 156.324 65.0879 156.918 66.1319 156.918ZM74.3719 151.776H72.3859V155.118C72.3859 155.664 72.3619 156.006 72.5179 156.282C72.8059 156.822 73.4419 156.876 74.3719 156.726V157.5C73.2739 157.728 72.1399 157.59 71.7139 156.726C71.4799 156.252 71.5099 155.79 71.5099 155.154V151.776H70.1239V151.02H71.5099V149.22H72.3859V151.02H74.3719V151.776ZM78.3449 151.02L80.4689 156.348L82.4369 151.02H83.3369L79.8569 160.38H78.9749L80.0429 157.488L77.4089 151.02H78.3449ZM86.8507 157.68C84.9187 157.68 83.7847 156.264 83.7847 154.254C83.7847 152.214 84.9547 150.84 86.8507 150.84C88.7947 150.84 89.9227 152.25 89.9227 154.254C89.9227 156.294 88.7707 157.68 86.8507 157.68ZM86.8507 156.834C88.2907 156.834 88.9867 155.784 88.9867 154.254C88.9867 152.694 88.2787 151.686 86.8507 151.686C85.3987 151.686 84.7207 152.742 84.7207 154.254C84.7207 155.814 85.4467 156.834 86.8507 156.834ZM95.8123 154.476V151.02H96.6943V157.5H95.9023V156.6C95.4223 157.302 94.6543 157.662 93.7243 157.662C91.7803 157.662 91.1263 156.042 91.1263 154.584V151.02H92.0143V154.326C92.0143 155.754 92.5363 156.822 93.8923 156.822C95.1403 156.822 95.8123 155.94 95.8123 154.476ZM103.462 157.68C101.5 157.68 100.438 156.258 100.414 154.26C100.438 152.22 101.53 150.84 103.468 150.84C104.776 150.84 105.82 151.524 106.18 152.634L105.316 152.91C105.01 152.136 104.308 151.686 103.462 151.686C102.028 151.686 101.368 152.748 101.35 154.26C101.368 155.814 102.07 156.834 103.462 156.834C104.338 156.834 104.968 156.426 105.292 155.646L106.18 155.91C105.694 157.062 104.746 157.68 103.462 157.68ZM112.285 152.136C112.441 152.514 112.477 152.994 112.477 153.474V157.5H111.691V156.426C111.187 157.248 110.329 157.68 109.225 157.68C107.755 157.68 107.011 156.792 107.011 155.76C107.011 154.698 107.695 154.134 108.661 153.876C109.537 153.666 110.749 153.528 111.613 153.408C111.601 152.238 111.115 151.674 109.885 151.674C108.997 151.674 108.361 152.058 108.115 152.922L107.257 152.67C107.557 151.512 108.469 150.84 109.897 150.84C111.079 150.84 111.943 151.296 112.285 152.136ZM109.327 156.918C110.563 156.918 111.349 156.192 111.517 155.214C111.589 154.896 111.601 154.476 111.601 154.182C110.749 154.284 109.729 154.386 109.015 154.584C108.463 154.746 107.893 155.058 107.893 155.76C107.893 156.324 108.283 156.918 109.327 156.918ZM115.335 151.446C115.845 151.002 116.655 150.876 117.225 151.02V151.848C116.745 151.734 116.145 151.758 115.677 152.142C115.029 152.652 114.921 153.492 114.921 154.266V157.5H114.039V151.02H114.831V152.046C114.969 151.8 115.149 151.59 115.335 151.446ZM123.934 154.506H118.828C118.9 155.988 119.662 156.834 120.952 156.834C121.876 156.834 122.584 156.396 122.986 155.586L123.808 155.904C123.292 157.038 122.242 157.68 120.988 157.68C119.098 157.68 117.886 156.342 117.886 154.29C117.886 152.166 119.08 150.84 120.952 150.84C122.872 150.84 124 152.22 123.934 154.506ZM120.976 151.65C119.728 151.65 118.984 152.406 118.846 153.768H123.01C122.872 152.37 122.182 151.65 120.976 151.65ZM132.582 152.136C132.738 152.514 132.774 152.994 132.774 153.474V157.5H131.988V156.426C131.484 157.248 130.626 157.68 129.522 157.68C128.052 157.68 127.308 156.792 127.308 155.76C127.308 154.698 127.992 154.134 128.958 153.876C129.834 153.666 131.046 153.528 131.91 153.408C131.898 152.238 131.412 151.674 130.182 151.674C129.294 151.674 128.658 152.058 128.412 152.922L127.554 152.67C127.854 151.512 128.766 150.84 130.194 150.84C131.376 150.84 132.24 151.296 132.582 152.136ZM129.624 156.918C130.86 156.918 131.646 156.192 131.814 155.214C131.886 154.896 131.898 154.476 131.898 154.182C131.046 154.284 130.026 154.386 129.312 154.584C128.76 154.746 128.19 155.058 128.19 155.76C128.19 156.324 128.58 156.918 129.624 156.918ZM137.282 150.84C139.058 150.84 140.12 152.322 140.12 154.254C140.12 156.198 139.064 157.68 137.246 157.68C136.304 157.68 135.59 157.266 135.122 156.594V157.5H134.33V148.86H135.218V151.782C135.692 151.194 136.382 150.84 137.282 150.84ZM137.156 156.858C138.506 156.858 139.184 155.73 139.184 154.254C139.184 152.79 138.53 151.662 137.138 151.662C135.788 151.662 135.122 152.73 135.122 154.254C135.122 155.754 135.776 156.858 137.156 156.858ZM144.144 157.68C142.212 157.68 141.078 156.264 141.078 154.254C141.078 152.214 142.248 150.84 144.144 150.84C146.088 150.84 147.216 152.25 147.216 154.254C147.216 156.294 146.064 157.68 144.144 157.68ZM144.144 156.834C145.584 156.834 146.28 155.784 146.28 154.254C146.28 152.694 145.572 151.686 144.144 151.686C142.692 151.686 142.014 152.742 142.014 154.254C142.014 155.814 142.74 156.834 144.144 156.834ZM153.105 154.476V151.02H153.987V157.5H153.195V156.6C152.715 157.302 151.947 157.662 151.017 157.662C149.073 157.662 148.419 156.042 148.419 154.584V151.02H149.307V154.326C149.307 155.754 149.829 156.822 151.185 156.822C152.433 156.822 153.105 155.94 153.105 154.476ZM159.192 151.776H157.206V155.118C157.206 155.664 157.182 156.006 157.338 156.282C157.626 156.822 158.262 156.876 159.192 156.726V157.5C158.094 157.728 156.96 157.59 156.534 156.726C156.3 156.252 156.33 155.79 156.33 155.154V151.776H154.944V151.02H156.33V149.22H157.206V151.02H159.192V151.776ZM161.147 157.566C160.799 157.566 160.535 157.302 160.535 156.96C160.535 156.612 160.799 156.348 161.147 156.348C161.495 156.348 161.765 156.612 161.765 156.96C161.765 157.302 161.495 157.566 161.147 157.566ZM166.806 150.414V157.5H165.918V148.86H166.806L171.564 155.94V148.86H172.452V157.5H171.564L166.806 150.414ZM176.839 157.68C174.907 157.68 173.773 156.264 173.773 154.254C173.773 152.214 174.943 150.84 176.839 150.84C178.783 150.84 179.911 152.25 179.911 154.254C179.911 156.294 178.759 157.68 176.839 157.68ZM176.839 156.834C178.279 156.834 178.975 155.784 178.975 154.254C178.975 152.694 178.267 151.686 176.839 151.686C175.387 151.686 174.709 152.742 174.709 154.254C174.709 155.814 175.435 156.834 176.839 156.834ZM190.099 150.846C191.407 150.846 192.253 151.71 192.253 153.078L192.247 157.5H191.365L191.371 153.246C191.371 152.244 190.747 151.638 189.895 151.638C189.157 151.638 188.383 152.112 188.383 153.318L188.377 157.5H187.507L187.513 153.306C187.513 152.274 186.913 151.638 186.019 151.638C185.119 151.638 184.519 152.304 184.519 153.318V157.5H183.631V151.02H184.423V151.704C184.825 151.176 185.479 150.846 186.247 150.846C187.099 150.846 187.789 151.23 188.137 151.938C188.515 151.254 189.235 150.846 190.099 150.846ZM196.468 157.68C194.536 157.68 193.402 156.264 193.402 154.254C193.402 152.214 194.572 150.84 196.468 150.84C198.412 150.84 199.54 152.25 199.54 154.254C199.54 156.294 198.388 157.68 196.468 157.68ZM196.468 156.834C197.908 156.834 198.604 155.784 198.604 154.254C198.604 152.694 197.896 151.686 196.468 151.686C195.016 151.686 194.338 152.742 194.338 154.254C194.338 155.814 195.064 156.834 196.468 156.834ZM202.159 151.446C202.669 151.002 203.479 150.876 204.049 151.02V151.848C203.569 151.734 202.969 151.758 202.501 152.142C201.853 152.652 201.745 153.492 201.745 154.266V157.5H200.863V151.02H201.655V152.046C201.793 151.8 201.973 151.59 202.159 151.446ZM210.758 154.506H205.652C205.724 155.988 206.486 156.834 207.776 156.834C208.7 156.834 209.408 156.396 209.81 155.586L210.632 155.904C210.116 157.038 209.066 157.68 207.812 157.68C205.922 157.68 204.71 156.342 204.71 154.29C204.71 152.166 205.904 150.84 207.776 150.84C209.696 150.84 210.824 152.22 210.758 154.506ZM207.8 151.65C206.552 151.65 205.808 152.406 205.67 153.768H209.834C209.696 152.37 209.006 151.65 207.8 151.65ZM217.462 150.858C219.406 150.858 220.06 152.478 220.06 153.936V157.5H219.172V154.194C219.172 152.766 218.65 151.698 217.294 151.698C216.046 151.698 215.374 152.58 215.374 154.044V157.5H214.486V151.02H215.284V151.92C215.764 151.218 216.532 150.858 217.462 150.858ZM224.276 157.68C222.344 157.68 221.21 156.264 221.21 154.254C221.21 152.214 222.38 150.84 224.276 150.84C226.22 150.84 227.348 152.25 227.348 154.254C227.348 156.294 226.196 157.68 224.276 157.68ZM224.276 156.834C225.716 156.834 226.412 155.784 226.412 154.254C226.412 152.694 225.704 151.686 224.276 151.686C222.824 151.686 222.146 152.742 222.146 154.254C222.146 155.814 222.872 156.834 224.276 156.834ZM229.23 149.904C228.882 149.904 228.618 149.64 228.618 149.298C228.618 148.95 228.882 148.686 229.23 148.686C229.578 148.686 229.848 148.95 229.848 149.298C229.848 149.64 229.578 149.904 229.23 149.904ZM229.674 157.5H228.792V151.02H229.674V157.5ZM233.891 157.674C232.373 157.674 231.335 156.984 231.113 155.814L232.013 155.664C232.199 156.402 232.931 156.87 233.939 156.87C234.923 156.87 235.529 156.426 235.529 155.718C235.529 155.118 235.253 154.938 233.609 154.494C231.851 154.02 231.311 153.594 231.311 152.688C231.311 151.584 232.307 150.84 233.771 150.84C235.235 150.84 236.303 151.602 236.435 152.73L235.535 152.892C235.409 152.13 234.731 151.662 233.759 151.644C232.841 151.626 232.205 152.034 232.205 152.646C232.205 153.162 232.571 153.402 234.101 153.786C235.889 154.242 236.447 154.704 236.447 155.706C236.447 156.93 235.481 157.674 233.891 157.674ZM243.466 154.506H238.36C238.432 155.988 239.194 156.834 240.484 156.834C241.408 156.834 242.116 156.396 242.518 155.586L243.34 155.904C242.824 157.038 241.774 157.68 240.52 157.68C238.63 157.68 237.418 156.342 237.418 154.29C237.418 152.166 238.612 150.84 240.484 150.84C242.404 150.84 243.532 152.22 243.466 154.506ZM240.508 151.65C239.26 151.65 238.516 152.406 238.378 153.768H242.542C242.404 152.37 241.714 151.65 240.508 151.65ZM244.281 159.12L244.839 156.234H245.727L244.887 159.12H244.281ZM250.957 149.904C250.609 149.904 250.345 149.64 250.345 149.298C250.345 148.95 250.609 148.686 250.957 148.686C251.305 148.686 251.569 148.95 251.569 149.298C251.569 149.64 251.305 149.904 250.957 149.904ZM249.823 160.38H249.192V159.528H249.559C250.147 159.528 250.519 159.252 250.519 158.55V151.02H251.395V158.772C251.395 159.852 250.885 160.38 249.823 160.38ZM257.73 154.476V151.02H258.612V157.5H257.82V156.6C257.34 157.302 256.572 157.662 255.642 157.662C253.698 157.662 253.044 156.042 253.044 154.584V151.02H253.932V154.326C253.932 155.754 254.454 156.822 255.81 156.822C257.058 156.822 257.73 155.94 257.73 154.476ZM262.707 157.674C261.189 157.674 260.151 156.984 259.929 155.814L260.829 155.664C261.015 156.402 261.747 156.87 262.755 156.87C263.739 156.87 264.345 156.426 264.345 155.718C264.345 155.118 264.069 154.938 262.425 154.494C260.667 154.02 260.127 153.594 260.127 152.688C260.127 151.584 261.123 150.84 262.587 150.84C264.051 150.84 265.119 151.602 265.251 152.73L264.351 152.892C264.225 152.13 263.547 151.662 262.575 151.644C261.657 151.626 261.021 152.034 261.021 152.646C261.021 153.162 261.387 153.402 262.917 153.786C264.705 154.242 265.263 154.704 265.263 155.706C265.263 156.93 264.297 157.674 262.707 157.674ZM270.122 151.776H268.136V155.118C268.136 155.664 268.112 156.006 268.268 156.282C268.556 156.822 269.192 156.876 270.122 156.726V157.5C269.024 157.728 267.89 157.59 267.464 156.726C267.23 156.252 267.26 155.79 267.26 155.154V151.776H265.874V151.02H267.26V149.22H268.136V151.02H270.122V151.776ZM276.489 157.68C274.527 157.68 273.465 156.258 273.441 154.26C273.465 152.22 274.557 150.84 276.495 150.84C277.803 150.84 278.847 151.524 279.207 152.634L278.343 152.91C278.037 152.136 277.335 151.686 276.489 151.686C275.055 151.686 274.395 152.748 274.377 154.26C274.395 155.814 275.097 156.834 276.489 156.834C277.365 156.834 277.995 156.426 278.319 155.646L279.207 155.91C278.721 157.062 277.773 157.68 276.489 157.68ZM281.272 157.5H280.39V148.68H281.272V157.5ZM287.984 152.136C288.14 152.514 288.176 152.994 288.176 153.474V157.5H287.39V156.426C286.886 157.248 286.028 157.68 284.924 157.68C283.454 157.68 282.71 156.792 282.71 155.76C282.71 154.698 283.394 154.134 284.36 153.876C285.236 153.666 286.448 153.528 287.312 153.408C287.3 152.238 286.814 151.674 285.584 151.674C284.696 151.674 284.06 152.058 283.814 152.922L282.956 152.67C283.256 151.512 284.168 150.84 285.596 150.84C286.778 150.84 287.642 151.296 287.984 152.136ZM285.026 156.918C286.262 156.918 287.048 156.192 287.216 155.214C287.288 154.896 287.3 154.476 287.3 154.182C286.448 154.284 285.428 154.386 284.714 154.584C284.162 154.746 283.592 155.058 283.592 155.76C283.592 156.324 283.982 156.918 285.026 156.918ZM291.034 151.446C291.544 151.002 292.354 150.876 292.924 151.02V151.848C292.444 151.734 291.844 151.758 291.376 152.142C290.728 152.652 290.62 153.492 290.62 154.266V157.5H289.738V151.02H290.53V152.046C290.668 151.8 290.848 151.59 291.034 151.446ZM294.621 149.904C294.273 149.904 294.009 149.64 294.009 149.298C294.009 148.95 294.273 148.686 294.621 148.686C294.969 148.686 295.239 148.95 295.239 149.298C295.239 149.64 294.969 149.904 294.621 149.904ZM295.065 157.5H294.183V151.02H295.065V157.5ZM300.391 151.776H298.405V155.118C298.405 155.664 298.381 156.006 298.537 156.282C298.825 156.822 299.461 156.876 300.391 156.726V157.5C299.293 157.728 298.159 157.59 297.733 156.726C297.499 156.252 297.529 155.79 297.529 155.154V151.776H296.143V151.02H297.529V149.22H298.405V151.02H300.391V151.776ZM301.786 151.02L303.91 156.348L305.878 151.02H306.778L303.298 160.38H302.416L303.484 157.488L300.85 151.02H301.786Z" fill="white"/>
<rect width="426" height="119" rx="24" fill="#87D4FE"/>
<g clip-path="url(#clip0_33_93)">
<rect x="20" y="17" width="20" height="20" rx="4" fill="white"/>
<g filter="url(#filter0_d_33_93)">
<path d="M25.301 32.94V30.672H26.274V24.358H25.301V22.09H29.074V25.037L29.032 25.87V26.248L29.074 27.55V30.672H29.984V32.94H25.301ZM31.58 30.161C31.034 30.161 30.5207 30.0397 30.04 29.797C29.5593 29.5543 29.13 29.181 28.752 28.677C28.3787 28.1683 28.0777 27.5197 27.849 26.731L29.032 26.059C29.032 26.3997 29.095 26.6983 29.221 26.955C29.347 27.207 29.5267 27.4053 29.76 27.55C29.9933 27.69 30.2733 27.76 30.6 27.76C30.922 27.76 31.1997 27.69 31.433 27.55C31.671 27.4053 31.853 27.2047 31.979 26.948C32.105 26.6913 32.168 26.3903 32.168 26.045C32.168 25.6997 32.1027 25.401 31.972 25.149C31.8413 24.8923 31.6593 24.694 31.426 24.554C31.1927 24.4093 30.9173 24.337 30.6 24.337C30.278 24.337 29.998 24.4093 29.76 24.554C29.5267 24.694 29.347 24.8923 29.221 25.149C29.095 25.4057 29.032 25.709 29.032 26.059L28.836 24.386H29.172C29.2607 23.84 29.4053 23.385 29.606 23.021C29.8113 22.657 30.0797 22.384 30.411 22.202C30.7423 22.02 31.146 21.929 31.622 21.929C32.168 21.929 32.6533 22.041 33.078 22.265C33.5027 22.489 33.862 22.7947 34.156 23.182C34.45 23.5647 34.6717 24.0033 34.821 24.498C34.975 24.988 35.052 25.5037 35.052 26.045C35.052 26.9037 34.905 27.641 34.611 28.257C34.317 28.873 33.9087 29.3443 33.386 29.671C32.8633 29.9977 32.2613 30.161 31.58 30.161Z" fill="black"/>
</g>
</g>
<path d="M54.296 33H53.12V21.48H57.568C57.792 21.48 58.088 21.496 58.376 21.544C60.176 21.824 61.184 23.256 61.184 25.056C61.184 26.848 60.168 28.288 58.376 28.56C58.088 28.608 57.784 28.624 57.568 28.624H54.296V33ZM54.296 22.608V27.504H57.536C57.728 27.504 58.008 27.488 58.248 27.432C59.432 27.184 59.976 26.128 59.976 25.056C59.976 23.984 59.432 22.928 58.248 22.672C58.008 22.624 57.728 22.608 57.536 22.608H54.296ZM70.2978 29.008H63.4898C63.5858 30.984 64.6018 32.112 66.3218 32.112C67.5538 32.112 68.4978 31.528 69.0338 30.448L70.1298 30.872C69.4418 32.384 68.0418 33.24 66.3698 33.24C63.8498 33.24 62.2338 31.456 62.2338 28.72C62.2338 25.888 63.8258 24.12 66.3218 24.12C68.8818 24.12 70.3858 25.96 70.2978 29.008ZM66.3538 25.2C64.6898 25.2 63.6978 26.208 63.5138 28.024H69.0658C68.8818 26.16 67.9618 25.2 66.3538 25.2ZM79.6571 29.008H72.8491C72.9451 30.984 73.9611 32.112 75.6811 32.112C76.9131 32.112 77.8571 31.528 78.3931 30.448L79.4891 30.872C78.8011 32.384 77.4011 33.24 75.7291 33.24C73.2091 33.24 71.5931 31.456 71.5931 28.72C71.5931 25.888 73.1851 24.12 75.6811 24.12C78.2411 24.12 79.7451 25.96 79.6571 29.008ZM75.7131 25.2C74.0491 25.2 73.0571 26.208 72.8731 28.024H78.4251C78.2411 26.16 77.3211 25.2 75.7131 25.2ZM85.1261 24.12C87.4941 24.12 88.9101 26.096 88.9101 28.672C88.9101 31.264 87.5021 33.24 85.0781 33.24C83.9101 33.24 82.9981 32.76 82.3741 31.968V36.84H81.1901V24.36H82.2461V25.552C82.8781 24.656 83.8461 24.12 85.1261 24.12ZM84.9581 32.144C86.7581 32.144 87.6621 30.64 87.6621 28.672C87.6621 26.72 86.7901 25.216 84.9341 25.216C83.1341 25.216 82.2461 26.64 82.2461 28.672C82.2461 30.672 83.1181 32.144 84.9581 32.144Z" fill="black"/>
<circle cx="97.5" cy="27" r="1.5" fill="black"/>
<path d="M110.08 24.144C112.672 24.144 113.544 26.304 113.544 28.248V33H112.36V28.592C112.36 26.688 111.664 25.264 109.856 25.264C108.192 25.264 107.296 26.44 107.296 28.392V33H106.112V24.36H107.176V25.56C107.816 24.624 108.84 24.144 110.08 24.144ZM119.166 33.24C116.59 33.24 115.078 31.352 115.078 28.672C115.078 25.952 116.638 24.12 119.166 24.12C121.758 24.12 123.262 26 123.262 28.672C123.262 31.392 121.726 33.24 119.166 33.24ZM119.166 32.112C121.086 32.112 122.014 30.712 122.014 28.672C122.014 26.592 121.07 25.248 119.166 25.248C117.23 25.248 116.326 26.656 116.326 28.672C116.326 30.752 117.294 32.112 119.166 32.112ZM127.578 33H126.554L123.914 24.352L125.09 24.36L127.138 31.072L129.194 24.36H130.266L132.322 31.072L134.386 24.36H135.554L132.914 33H131.89L129.73 26.12L127.578 33Z" fill="black"/>
<path d="M22.792 71H21.12V59.48H25.776C26 59.48 26.36 59.496 26.664 59.544C28.592 59.84 29.552 61.304 29.552 63.168C29.552 65.04 28.584 66.496 26.664 66.8C26.36 66.848 25.992 66.864 25.776 66.864H22.792V71ZM22.792 61.056V65.28H25.712C25.92 65.28 26.2 65.264 26.44 65.208C27.464 64.96 27.848 64.016 27.848 63.168C27.848 62.32 27.464 61.376 26.44 61.136C26.2 61.072 25.92 61.056 25.712 61.056H22.792ZM38.7939 67.152H32.3539C32.4899 68.76 33.3379 69.664 34.7939 69.664C35.8339 69.664 36.6179 69.176 37.0419 68.288L38.6819 68.808C38.0099 70.352 36.5459 71.24 34.8739 71.24C32.2899 71.24 30.5619 69.424 30.5619 66.752C30.5619 63.92 32.2659 62.12 34.7939 62.12C37.4339 62.12 38.9699 64.056 38.7939 67.152ZM34.8579 63.6C33.4339 63.6 32.6099 64.384 32.3939 65.848H37.0819C36.9059 64.32 36.1859 63.6 34.8579 63.6ZM48.3408 67.152H41.9008C42.0368 68.76 42.8848 69.664 44.3408 69.664C45.3808 69.664 46.1648 69.176 46.5888 68.288L48.2288 68.808C47.5568 70.352 46.0928 71.24 44.4208 71.24C41.8368 71.24 40.1088 69.424 40.1088 66.752C40.1088 63.92 41.8128 62.12 44.3408 62.12C46.9808 62.12 48.5168 64.056 48.3408 67.152ZM44.4048 63.6C42.9808 63.6 42.1568 64.384 41.9408 65.848H46.6288C46.4528 64.32 45.7328 63.6 44.4048 63.6ZM53.9253 62.12C56.3573 62.12 57.8693 64.064 57.8693 66.672C57.8693 69.264 56.3653 71.24 53.9573 71.24C52.9733 71.24 52.1813 70.928 51.5733 70.392V74.84H49.8933V62.36H51.3813V63.136C51.9973 62.496 52.8533 62.12 53.9253 62.12ZM53.7253 69.728C55.3333 69.728 56.0933 68.384 56.0933 66.672C56.0933 64.976 55.3333 63.632 53.6693 63.632C52.0933 63.632 51.3813 64.88 51.3813 66.672C51.3813 68.464 52.0773 69.728 53.7253 69.728ZM64.8308 71H63.1588V59.48H64.8308V71ZM75.0608 66.24V71H73.3648V66.24L69.4688 59.48H71.4208L74.2128 64.32L77.0048 59.48H78.9568L75.0608 66.24ZM82.5439 71.24C79.9519 71.24 78.3119 69.352 78.3119 66.672C78.3119 63.968 79.9999 62.12 82.5439 62.12C85.1359 62.12 86.7839 64 86.7839 66.672C86.7839 69.376 85.1199 71.24 82.5439 71.24ZM82.5439 69.664C84.1919 69.664 85.0079 68.44 85.0079 66.672C85.0079 64.864 84.1759 63.696 82.5439 63.696C80.8639 63.696 80.0879 64.912 80.0879 66.672C80.0879 68.496 80.9279 69.664 82.5439 69.664ZM94.4539 66.856V62.36H96.1419V71H94.6539V69.968C94.0219 70.768 93.0459 71.232 91.7979 71.232C88.8219 71.232 88.3819 68.496 88.3819 67.16V62.36H90.0779V66.608C90.0779 67.952 90.4219 69.648 92.2619 69.648C93.4619 69.648 94.4539 68.904 94.4539 66.856ZM100.674 62.848C101.322 62.368 102.274 62.216 103.05 62.36V63.928C102.49 63.776 101.738 63.824 101.162 64.192C100.346 64.712 100.074 65.624 100.074 66.64V71H98.3856V62.36H99.8736V63.736C100.074 63.376 100.346 63.064 100.674 62.848ZM110.064 62.848C110.712 62.368 111.664 62.216 112.44 62.36V63.928C111.88 63.776 111.128 63.824 110.552 64.192C109.736 64.712 109.464 65.624 109.464 66.64V71H107.776V62.36H109.264V63.736C109.464 63.376 109.736 63.064 110.064 62.848ZM119.876 66.856V62.36H121.564V71H120.076V69.968C119.444 70.768 118.468 71.232 117.22 71.232C114.244 71.232 113.804 68.496 113.804 67.16V62.36H115.5V66.608C115.5 67.952 115.844 69.648 117.684 69.648C118.884 69.648 119.876 68.904 119.876 66.856ZM125.64 71H123.968V59.24H125.64V71ZM135.794 67.152H129.354C129.49 68.76 130.338 69.664 131.794 69.664C132.834 69.664 133.618 69.176 134.042 68.288L135.682 68.808C135.01 70.352 133.546 71.24 131.874 71.24C129.29 71.24 127.562 69.424 127.562 66.752C127.562 63.92 129.266 62.12 131.794 62.12C134.434 62.12 135.97 64.056 135.794 67.152ZM131.858 63.6C130.434 63.6 129.61 64.384 129.394 65.848H134.082C133.906 64.32 133.186 63.6 131.858 63.6ZM140.893 71.232C138.789 71.232 137.405 70.264 137.109 68.576L138.821 68.312C139.037 69.216 139.853 69.76 141.005 69.76C142.045 69.76 142.677 69.312 142.677 68.56C142.677 67.904 142.389 67.728 140.357 67.184C138.125 66.6 137.389 65.984 137.389 64.712C137.389 63.144 138.717 62.12 140.749 62.12C142.733 62.12 144.157 63.12 144.349 64.656L142.637 64.968C142.517 64.144 141.821 63.632 140.765 63.592C139.749 63.552 139.061 63.968 139.061 64.624C139.061 65.2 139.453 65.424 141.477 65.936C143.653 66.496 144.397 67.16 144.397 68.496C144.397 70.208 143.077 71.232 140.893 71.232ZM145.863 73.392L146.583 69.072H148.199L146.943 73.392H145.863ZM155.011 61.176C154.411 61.176 153.963 60.712 153.963 60.136C153.963 59.552 154.411 59.096 155.011 59.096C155.611 59.096 156.051 59.552 156.051 60.136C156.051 60.712 155.611 61.176 155.011 61.176ZM155.843 71H154.171V62.36H155.843V71ZM162.589 62.128C165.565 62.128 166.005 64.864 166.005 66.2V71H164.309V66.752C164.309 65.408 163.965 63.712 162.125 63.712C160.925 63.712 159.933 64.456 159.933 66.504V71H158.237V62.36H159.733V63.392C160.365 62.592 161.341 62.128 162.589 62.128ZM173.033 63.704H170.465V67.52C170.465 68.216 170.433 68.72 170.641 69.072C171.025 69.728 171.905 69.752 173.033 69.584V71C171.409 71.32 169.737 71.152 169.105 69.952C168.729 69.24 168.785 68.544 168.785 67.6V63.704H167.129V62.36H168.785V59.96H170.465V62.36H173.033V63.704ZM182.2 67.152H175.76C175.896 68.76 176.744 69.664 178.2 69.664C179.24 69.664 180.024 69.176 180.448 68.288L182.088 68.808C181.416 70.352 179.952 71.24 178.28 71.24C175.696 71.24 173.968 69.424 173.968 66.752C173.968 63.92 175.672 62.12 178.2 62.12C180.84 62.12 182.376 64.056 182.2 67.152ZM178.264 63.6C176.84 63.6 176.016 64.384 175.8 65.848H180.488C180.312 64.32 179.592 63.6 178.264 63.6ZM185.827 71H184.155V59.24H185.827V71ZM190.061 71H188.389V59.24H190.061V71ZM193.464 61.176C192.864 61.176 192.416 60.712 192.416 60.136C192.416 59.552 192.864 59.096 193.464 59.096C194.064 59.096 194.504 59.552 194.504 60.136C194.504 60.712 194.064 61.176 193.464 61.176ZM194.296 71H192.624V62.36H194.296V71ZM202.706 63.136V62.36H204.186V71.232C204.186 71.696 204.162 72.104 204.074 72.512C203.714 74.264 202.274 75.08 200.258 75.08C198.866 75.08 197.538 74.424 196.834 73.192L198.378 72.408C198.754 73.144 199.506 73.472 200.274 73.472C201.698 73.472 202.53 72.704 202.506 71.216V70.4C201.898 70.936 201.106 71.24 200.13 71.24C197.722 71.24 196.218 69.264 196.218 66.672C196.218 64.064 197.73 62.12 200.162 62.12C201.234 62.12 202.09 62.496 202.706 63.136ZM200.362 69.728C202.01 69.728 202.706 68.464 202.706 66.672C202.706 64.88 201.994 63.632 200.418 63.632C198.754 63.632 197.994 64.976 197.994 66.672C197.994 68.384 198.754 69.728 200.362 69.728ZM214.185 67.152H207.745C207.881 68.76 208.729 69.664 210.185 69.664C211.225 69.664 212.009 69.176 212.433 68.288L214.073 68.808C213.401 70.352 211.937 71.24 210.265 71.24C207.681 71.24 205.953 69.424 205.953 66.752C205.953 63.92 207.657 62.12 210.185 62.12C212.825 62.12 214.361 64.056 214.185 67.152ZM210.249 63.6C208.825 63.6 208.001 64.384 207.785 65.848H212.473C212.297 64.32 211.577 63.6 210.249 63.6ZM220.089 62.128C223.065 62.128 223.505 64.864 223.505 66.2V71H221.809V66.752C221.809 65.408 221.465 63.712 219.625 63.712C218.425 63.712 217.433 64.456 217.433 66.504V71H215.737V62.36H217.233V63.392C217.865 62.592 218.841 62.128 220.089 62.128ZM230.533 63.704H227.965V67.52C227.965 68.216 227.933 68.72 228.141 69.072C228.525 69.728 229.405 69.752 230.533 69.584V71C228.909 71.32 227.237 71.152 226.605 69.952C226.229 69.24 226.285 68.544 226.285 67.6V63.704H224.629V62.36H226.285V59.96H227.965V62.36H230.533V63.704ZM234.186 71H232.514V59.24H234.186V71ZM237.429 62.36L239.989 68.848L242.421 62.36H244.117L239.349 74.84H237.757L239.181 70.96L235.685 62.36H237.429ZM255.301 63.768C255.573 64.336 255.605 64.96 255.605 65.68V71H254.125V69.744C253.413 70.76 252.413 71.24 251.013 71.24C249.101 71.24 248.093 70.056 248.093 68.648C248.093 67.344 248.797 66.512 250.133 66.088C251.133 65.792 252.557 65.608 253.957 65.416C253.901 64.224 253.357 63.664 252.005 63.664C251.093 63.664 250.261 64.064 249.965 65.024L248.405 64.544C248.821 63.064 250.021 62.12 252.021 62.12C253.565 62.12 254.765 62.632 255.301 63.768ZM251.309 69.872C252.733 69.872 253.573 69 253.765 68.16C253.901 67.76 253.933 67.208 253.941 66.808C252.637 67 251.669 67.136 250.941 67.352C250.253 67.584 249.749 67.952 249.749 68.632C249.749 69.304 250.237 69.872 251.309 69.872ZM261.707 62.12C264.139 62.12 265.651 64.064 265.651 66.672C265.651 69.264 264.147 71.24 261.739 71.24C260.755 71.24 259.963 70.928 259.355 70.392V74.84H257.675V62.36H259.163V63.136C259.779 62.496 260.635 62.12 261.707 62.12ZM261.507 69.728C263.115 69.728 263.875 68.384 263.875 66.672C263.875 64.976 263.115 63.632 261.451 63.632C259.875 63.632 259.163 64.88 259.163 66.672C259.163 68.464 259.859 69.728 261.507 69.728ZM271.441 62.12C273.873 62.12 275.385 64.064 275.385 66.672C275.385 69.264 273.881 71.24 271.473 71.24C270.489 71.24 269.697 70.928 269.089 70.392V74.84H267.409V62.36H268.897V63.136C269.513 62.496 270.369 62.12 271.441 62.12ZM271.241 69.728C272.849 69.728 273.609 68.384 273.609 66.672C273.609 64.976 272.849 63.632 271.185 63.632C269.609 63.632 268.897 64.88 268.897 66.672C268.897 68.464 269.593 69.728 271.241 69.728ZM278.983 71H277.311V59.24H278.983V71ZM282.386 61.176C281.786 61.176 281.338 60.712 281.338 60.136C281.338 59.552 281.786 59.096 282.386 59.096C282.986 59.096 283.426 59.552 283.426 60.136C283.426 60.712 282.986 61.176 282.386 61.176ZM283.218 71H281.546V62.36H283.218V71ZM293.372 67.152H286.932C287.068 68.76 287.916 69.664 289.372 69.664C290.412 69.664 291.196 69.176 291.62 68.288L293.26 68.808C292.588 70.352 291.124 71.24 289.452 71.24C286.868 71.24 285.14 69.424 285.14 66.752C285.14 63.92 286.844 62.12 289.372 62.12C292.012 62.12 293.548 64.056 293.372 67.152ZM289.436 63.6C288.012 63.6 287.188 64.384 286.972 65.848H291.66C291.484 64.32 290.764 63.6 289.436 63.6ZM300.983 62.952V59.48H302.663V71H301.175V70.208C300.551 70.856 299.687 71.24 298.599 71.24C296.191 71.24 294.687 69.264 294.687 66.672C294.687 64.064 296.199 62.12 298.631 62.12C299.599 62.12 300.383 62.424 300.983 62.952ZM298.831 69.728C300.479 69.728 301.175 68.464 301.175 66.672C301.175 64.88 300.463 63.632 298.887 63.632C297.223 63.632 296.463 64.976 296.463 66.672C296.463 68.384 297.223 69.728 298.831 69.728Z" fill="black"/>
<path d="M24.8 99.225C22.5425 99.225 20.87 98.0325 20.5025 96.1125L21.6275 95.925C21.9875 97.3275 23.2325 98.1675 24.845 98.1675C26.4425 98.1675 27.62 97.3725 27.62 96.0975C27.62 94.9875 26.7125 94.575 25.9625 94.35L23.225 93.5325C21.905 93.1425 20.9225 92.3925 20.9225 90.945C20.9225 89.1225 22.4825 87.975 24.6125 87.9825C26.7725 87.99 28.3325 89.19 28.685 91.1325L27.53 91.3425C27.3125 89.94 26.1125 89.0475 24.605 89.0325C23.1575 89.025 22.085 89.8275 22.085 90.9C22.085 91.995 23.165 92.3625 24.005 92.6025L26.12 93.225C26.9975 93.4725 28.745 94.005 28.745 96.0525C28.745 98.0625 27.0575 99.225 24.8 99.225ZM30.9907 89.505C30.5557 89.505 30.2257 89.175 30.2257 88.7475C30.2257 88.3125 30.5557 87.9825 30.9907 87.9825C31.4257 87.9825 31.7632 88.3125 31.7632 88.7475C31.7632 89.175 31.4257 89.505 30.9907 89.505ZM31.5457 99H30.4432V90.9H31.5457V99ZM41.8716 90.6825C43.5066 90.6825 44.5641 91.7625 44.5641 93.4725L44.5566 99H43.4541L43.4616 93.6825C43.4616 92.43 42.6816 91.6725 41.6166 91.6725C40.6941 91.6725 39.7266 92.265 39.7266 93.7725L39.7191 99H38.6316L38.6391 93.7575C38.6391 92.4675 37.8891 91.6725 36.7716 91.6725C35.6466 91.6725 34.8966 92.505 34.8966 93.7725V99H33.7866V90.9H34.7766V91.755C35.2791 91.095 36.0966 90.6825 37.0566 90.6825C38.1216 90.6825 38.9841 91.1625 39.4191 92.0475C39.8916 91.1925 40.7916 90.6825 41.8716 90.6825ZM50.1915 90.675C52.4115 90.675 53.739 92.5275 53.739 94.9425C53.739 97.3725 52.419 99.225 50.1465 99.225C49.0515 99.225 48.1965 98.775 47.6115 98.0325V102.6H46.5015V90.9H47.4915V92.0175C48.084 91.1775 48.9915 90.675 50.1915 90.675ZM50.034 98.1975C51.7215 98.1975 52.569 96.7875 52.569 94.9425C52.569 93.1125 51.7515 91.7025 50.0115 91.7025C48.324 91.7025 47.4915 93.0375 47.4915 94.9425C47.4915 96.8175 48.309 98.1975 50.034 98.1975ZM56.6384 99H55.5359V87.975H56.6384V99ZM59.2544 90.9L61.9094 97.56L64.3694 90.9H65.4944L61.1444 102.6H60.0419L61.3769 98.985L58.0844 90.9H59.2544ZM74.21 91.845H71.7275V96.0225C71.7275 96.705 71.6975 97.1325 71.8925 97.4775C72.2525 98.1525 73.0475 98.22 74.21 98.0325V99C72.8375 99.285 71.42 99.1125 70.8875 98.0325C70.595 97.44 70.6325 96.8625 70.6325 96.0675V91.845H68.9V90.9H70.6325V88.65H71.7275V90.9H74.21V91.845ZM82.6229 95.2575H76.2404C76.3304 97.11 77.2829 98.1675 78.8954 98.1675C80.0504 98.1675 80.9354 97.62 81.4379 96.6075L82.4654 97.005C81.8204 98.4225 80.5079 99.225 78.9404 99.225C76.5779 99.225 75.0629 97.5525 75.0629 94.9875C75.0629 92.3325 76.5554 90.675 78.8954 90.675C81.2954 90.675 82.7054 92.4 82.6229 95.2575ZM78.9254 91.6875C77.3654 91.6875 76.4354 92.6325 76.2629 94.335H81.4679C81.2954 92.5875 80.4329 91.6875 78.9254 91.6875ZM85.5398 99H84.4373V87.975H85.5398V99ZM89.0408 99H87.9383V87.975H89.0408V99ZM97.9747 90.675C100.195 90.675 101.522 92.5275 101.522 94.9425C101.522 97.3725 100.202 99.225 97.9297 99.225C96.8347 99.225 95.9797 98.775 95.3947 98.0325V102.6H94.2847V90.9H95.2747V92.0175C95.8672 91.1775 96.7747 90.675 97.9747 90.675ZM97.8172 98.1975C99.5047 98.1975 100.352 96.7875 100.352 94.9425C100.352 93.1125 99.5347 91.7025 97.7947 91.7025C96.1072 91.7025 95.2747 93.0375 95.2747 94.9425C95.2747 96.8175 96.0922 98.1975 97.8172 98.1975ZM110.279 95.2575H103.897C103.987 97.11 104.939 98.1675 106.552 98.1675C107.707 98.1675 108.592 97.62 109.094 96.6075L110.122 97.005C109.477 98.4225 108.164 99.225 106.597 99.225C104.234 99.225 102.719 97.5525 102.719 94.9875C102.719 92.3325 104.212 90.675 106.552 90.675C108.952 90.675 110.362 92.4 110.279 95.2575ZM106.582 91.6875C105.022 91.6875 104.092 92.6325 103.919 94.335H109.124C108.952 92.5875 108.089 91.6875 106.582 91.6875ZM119.054 95.2575H112.671C112.761 97.11 113.714 98.1675 115.326 98.1675C116.481 98.1675 117.366 97.62 117.869 96.6075L118.896 97.005C118.251 98.4225 116.939 99.225 115.371 99.225C113.009 99.225 111.494 97.5525 111.494 94.9875C111.494 92.3325 112.986 90.675 115.326 90.675C117.726 90.675 119.136 92.4 119.054 95.2575ZM115.356 91.6875C113.796 91.6875 112.866 92.6325 112.694 94.335H117.899C117.726 92.5875 116.864 91.6875 115.356 91.6875ZM124.181 90.675C126.401 90.675 127.728 92.5275 127.728 94.9425C127.728 97.3725 126.408 99.225 124.136 99.225C123.041 99.225 122.186 98.775 121.601 98.0325V102.6H120.491V90.9H121.481V92.0175C122.073 91.1775 122.981 90.675 124.181 90.675ZM124.023 98.1975C125.711 98.1975 126.558 96.7875 126.558 94.9425C126.558 93.1125 125.741 91.7025 124.001 91.7025C122.313 91.7025 121.481 93.0375 121.481 94.9425C121.481 96.8175 122.298 98.1975 124.023 98.1975ZM138.521 92.295C138.716 92.7675 138.761 93.3675 138.761 93.9675V99H137.778V97.6575C137.148 98.685 136.076 99.225 134.696 99.225C132.858 99.225 131.928 98.115 131.928 96.825C131.928 95.4975 132.783 94.7925 133.991 94.47C135.086 94.2075 136.601 94.035 137.681 93.885C137.666 92.4225 137.058 91.7175 135.521 91.7175C134.411 91.7175 133.616 92.1975 133.308 93.2775L132.236 92.9625C132.611 91.515 133.751 90.675 135.536 90.675C137.013 90.675 138.093 91.245 138.521 92.295ZM134.823 98.2725C136.368 98.2725 137.351 97.365 137.561 96.1425C137.651 95.745 137.666 95.22 137.666 94.8525C136.601 94.98 135.326 95.1075 134.433 95.355C133.743 95.5575 133.031 95.9475 133.031 96.825C133.031 97.53 133.518 98.2725 134.823 98.2725ZM144.426 90.6975C146.856 90.6975 147.673 92.7225 147.673 94.545V99H146.563V94.8675C146.563 93.0825 145.911 91.7475 144.216 91.7475C142.656 91.7475 141.816 92.85 141.816 94.68V99H140.706V90.9H141.703V92.025C142.303 91.1475 143.263 90.6975 144.426 90.6975ZM155.238 91.8525V88.2H156.348V99H155.358V97.8675C154.773 98.7075 153.881 99.225 152.703 99.225C150.431 99.225 149.111 97.3725 149.111 94.9425C149.111 92.5275 150.438 90.675 152.658 90.675C153.783 90.675 154.646 91.1175 155.238 91.8525ZM152.816 98.1975C154.541 98.1975 155.358 96.8175 155.358 94.9425C155.358 93.0375 154.526 91.7025 152.838 91.7025C151.098 91.7025 150.281 93.1125 150.281 94.9425C150.281 96.7875 151.128 98.1975 152.816 98.1975ZM164.478 99.2175C162.58 99.2175 161.283 98.355 161.005 96.8925L162.13 96.705C162.363 97.6275 163.278 98.2125 164.538 98.2125C165.768 98.2125 166.525 97.6575 166.525 96.7725C166.525 96.0225 166.18 95.7975 164.125 95.2425C161.928 94.65 161.253 94.1175 161.253 92.985C161.253 91.605 162.498 90.675 164.328 90.675C166.158 90.675 167.493 91.6275 167.658 93.0375L166.533 93.24C166.375 92.2875 165.528 91.7025 164.313 91.68C163.165 91.6575 162.37 92.1675 162.37 92.9325C162.37 93.5775 162.828 93.8775 164.74 94.3575C166.975 94.9275 167.673 95.505 167.673 96.7575C167.673 98.2875 166.465 99.2175 164.478 99.2175ZM175.479 92.295C175.674 92.7675 175.719 93.3675 175.719 93.9675V99H174.736V97.6575C174.106 98.685 173.034 99.225 171.654 99.225C169.816 99.225 168.886 98.115 168.886 96.825C168.886 95.4975 169.741 94.7925 170.949 94.47C172.044 94.2075 173.559 94.035 174.639 93.885C174.624 92.4225 174.016 91.7175 172.479 91.7175C171.369 91.7175 170.574 92.1975 170.266 93.2775L169.194 92.9625C169.569 91.515 170.709 90.675 172.494 90.675C173.971 90.675 175.051 91.245 175.479 92.295ZM171.781 98.2725C173.326 98.2725 174.309 97.365 174.519 96.1425C174.609 95.745 174.624 95.22 174.624 94.8525C173.559 94.98 172.284 95.1075 171.391 95.355C170.701 95.5575 169.989 95.9475 169.989 96.825C169.989 97.53 170.476 98.2725 171.781 98.2725ZM177.584 90.9L180.239 97.56L182.699 90.9H183.824L179.474 102.6H178.372L179.707 98.985L176.414 90.9H177.584ZM193.928 92.0175V90.9H194.91V98.8875C194.91 99.3525 194.888 99.765 194.82 100.178C194.528 101.985 193.328 102.825 191.348 102.825C190.103 102.825 188.843 102.3 188.153 101.04L189.15 100.485C189.593 101.385 190.493 101.753 191.348 101.753C193.103 101.753 193.808 100.778 193.8 98.8725V98.04C193.215 98.775 192.368 99.225 191.273 99.225C189 99.225 187.68 97.3725 187.68 94.9425C187.68 92.5275 189.008 90.675 191.228 90.675C192.428 90.675 193.335 91.1775 193.928 92.0175ZM191.385 98.1975C193.11 98.1975 193.928 96.8175 193.928 94.9425C193.928 93.0375 193.095 91.7025 191.408 91.7025C189.668 91.7025 188.85 93.1125 188.85 94.9425C188.85 96.7875 189.698 98.1975 191.385 98.1975ZM200.39 99.225C197.975 99.225 196.557 97.455 196.557 94.9425C196.557 92.3925 198.02 90.675 200.39 90.675C202.82 90.675 204.23 92.4375 204.23 94.9425C204.23 97.4925 202.79 99.225 200.39 99.225ZM200.39 98.1675C202.19 98.1675 203.06 96.855 203.06 94.9425C203.06 92.9925 202.175 91.7325 200.39 91.7325C198.575 91.7325 197.727 93.0525 197.727 94.9425C197.727 96.8925 198.635 98.1675 200.39 98.1675ZM209.266 99.225C206.851 99.225 205.434 97.455 205.434 94.9425C205.434 92.3925 206.896 90.675 209.266 90.675C211.696 90.675 213.106 92.4375 213.106 94.9425C213.106 97.4925 211.666 99.225 209.266 99.225ZM209.266 98.1675C211.066 98.1675 211.936 96.855 211.936 94.9425C211.936 92.9925 211.051 91.7325 209.266 91.7325C207.451 91.7325 206.604 93.0525 206.604 94.9425C206.604 96.8925 207.511 98.1675 209.266 98.1675ZM220.438 91.8525V88.2H221.548V99H220.558V97.8675C219.973 98.7075 219.081 99.225 217.903 99.225C215.631 99.225 214.311 97.3725 214.311 94.9425C214.311 92.5275 215.638 90.675 217.858 90.675C218.983 90.675 219.846 91.1175 220.438 91.8525ZM218.016 98.1975C219.741 98.1975 220.558 96.8175 220.558 94.9425C220.558 93.0375 219.726 91.7025 218.038 91.7025C216.298 91.7025 215.481 93.1125 215.481 94.9425C215.481 96.7875 216.328 98.1975 218.016 98.1975ZM227.335 90.675C229.555 90.675 230.883 92.5275 230.883 94.9425C230.883 97.3725 229.563 99.225 227.29 99.225C226.113 99.225 225.22 98.7075 224.635 97.8675V99H223.645V88.2H224.755V91.8525C225.348 91.1175 226.21 90.675 227.335 90.675ZM227.178 98.1975C228.865 98.1975 229.713 96.7875 229.713 94.9425C229.713 93.1125 228.895 91.7025 227.155 91.7025C225.468 91.7025 224.635 93.0375 224.635 94.9425C224.635 96.8175 225.453 98.1975 227.178 98.1975ZM232.501 90.9L235.156 97.56L237.616 90.9H238.741L234.391 102.6H233.289L234.624 98.985L231.331 90.9H232.501ZM246.861 95.2575H240.479C240.569 97.11 241.521 98.1675 243.134 98.1675C244.289 98.1675 245.174 97.62 245.676 96.6075L246.704 97.005C246.059 98.4225 244.746 99.225 243.179 99.225C240.816 99.225 239.301 97.5525 239.301 94.9875C239.301 92.3325 240.794 90.675 243.134 90.675C245.534 90.675 246.944 92.4 246.861 95.2575ZM243.164 91.6875C241.604 91.6875 240.674 92.6325 240.501 94.335H245.706C245.534 92.5875 244.671 91.6875 243.164 91.6875ZM255.939 91.845H253.456V96.0225C253.456 96.705 253.426 97.1325 253.621 97.4775C253.981 98.1525 254.776 98.22 255.939 98.0325V99C254.566 99.285 253.149 99.1125 252.616 98.0325C252.324 97.44 252.361 96.8625 252.361 96.0675V91.845H250.629V90.9H252.361V88.65H253.456V90.9H255.939V91.845ZM260.624 99.225C258.209 99.225 256.791 97.455 256.791 94.9425C256.791 92.3925 258.254 90.675 260.624 90.675C263.054 90.675 264.464 92.4375 264.464 94.9425C264.464 97.4925 263.024 99.225 260.624 99.225ZM260.624 98.1675C262.424 98.1675 263.294 96.855 263.294 94.9425C263.294 92.9925 262.409 91.7325 260.624 91.7325C258.809 91.7325 257.961 93.0525 257.961 94.9425C257.961 96.8925 258.869 98.1675 260.624 98.1675ZM269.819 89.505C269.384 89.505 269.054 89.175 269.054 88.7475C269.054 88.3125 269.384 87.9825 269.819 87.9825C270.254 87.9825 270.591 88.3125 270.591 88.7475C270.591 89.175 270.254 89.505 269.819 89.505ZM270.374 99H269.271V90.9H270.374V99ZM274.242 91.4325C274.88 90.8775 275.892 90.72 276.605 90.9V91.935C276.005 91.7925 275.255 91.8225 274.67 92.3025C273.86 92.94 273.725 93.99 273.725 94.9575V99H272.622V90.9H273.612V92.1825C273.785 91.875 274.01 91.6125 274.242 91.4325ZM279.648 91.4325C280.285 90.8775 281.298 90.72 282.01 90.9V91.935C281.41 91.7925 280.66 91.8225 280.075 92.3025C279.265 92.94 279.13 93.99 279.13 94.9575V99H278.028V90.9H279.018V92.1825C279.19 91.875 279.415 91.6125 279.648 91.4325ZM290.396 95.2575H284.014C284.104 97.11 285.056 98.1675 286.669 98.1675C287.824 98.1675 288.709 97.62 289.211 96.6075L290.239 97.005C289.594 98.4225 288.281 99.225 286.714 99.225C284.351 99.225 282.836 97.5525 282.836 94.9875C282.836 92.3325 284.329 90.675 286.669 90.675C289.069 90.675 290.479 92.4 290.396 95.2575ZM286.699 91.6875C285.139 91.6875 284.209 92.6325 284.036 94.335H289.241C289.069 92.5875 288.206 91.6875 286.699 91.6875ZM293.313 99H292.211V87.975H293.313V99ZM302.672 95.2575H296.289C296.379 97.11 297.332 98.1675 298.944 98.1675C300.099 98.1675 300.984 97.62 301.487 96.6075L302.514 97.005C301.869 98.4225 300.557 99.225 298.989 99.225C296.627 99.225 295.112 97.5525 295.112 94.9875C295.112 92.3325 296.604 90.675 298.944 90.675C301.344 90.675 302.754 92.4 302.672 95.2575ZM298.974 91.6875C297.414 91.6875 296.484 92.6325 296.312 94.335H301.517C301.344 92.5875 300.482 91.6875 298.974 91.6875ZM307.373 99H306.233L303.293 90.9H304.411L306.803 97.56L309.181 90.9H310.313L307.373 99ZM317.349 92.295C317.544 92.7675 317.589 93.3675 317.589 93.9675V99H316.606V97.6575C315.976 98.685 314.904 99.225 313.524 99.225C311.686 99.225 310.756 98.115 310.756 96.825C310.756 95.4975 311.611 94.7925 312.819 94.47C313.914 94.2075 315.429 94.035 316.509 93.885C316.494 92.4225 315.886 91.7175 314.349 91.7175C313.239 91.7175 312.444 92.1975 312.136 93.2775L311.064 92.9625C311.439 91.515 312.579 90.675 314.364 90.675C315.841 90.675 316.921 91.245 317.349 92.295ZM313.651 98.2725C315.196 98.2725 316.179 97.365 316.389 96.1425C316.479 95.745 316.494 95.22 316.494 94.8525C315.429 94.98 314.154 95.1075 313.261 95.355C312.571 95.5575 311.859 95.9475 311.859 96.825C311.859 97.53 312.346 98.2725 313.651 98.2725ZM323.254 90.6975C325.684 90.6975 326.501 92.7225 326.501 94.545V99H325.391V94.8675C325.391 93.0825 324.739 91.7475 323.044 91.7475C321.484 91.7475 320.644 92.85 320.644 94.68V99H319.534V90.9H320.531V92.025C321.131 91.1475 322.091 90.6975 323.254 90.6975ZM332.857 91.845H330.375V96.0225C330.375 96.705 330.345 97.1325 330.54 97.4775C330.9 98.1525 331.695 98.22 332.857 98.0325V99C331.485 99.285 330.067 99.1125 329.535 98.0325C329.242 97.44 329.28 96.8625 329.28 96.0675V91.845H327.547V90.9H329.28V88.65H330.375V90.9H332.857V91.845ZM341.139 90.675C343.359 90.675 344.686 92.5275 344.686 94.9425C344.686 97.3725 343.366 99.225 341.094 99.225C339.999 99.225 339.144 98.775 338.559 98.0325V102.6H337.449V90.9H338.439V92.0175C339.031 91.1775 339.939 90.675 341.139 90.675ZM340.981 98.1975C342.669 98.1975 343.516 96.7875 343.516 94.9425C343.516 93.1125 342.699 91.7025 340.959 91.7025C339.271 91.7025 338.439 93.0375 338.439 94.9425C338.439 96.8175 339.256 98.1975 340.981 98.1975ZM347.031 89.505C346.596 89.505 346.266 89.175 346.266 88.7475C346.266 88.3125 346.596 87.9825 347.031 87.9825C347.466 87.9825 347.803 88.3125 347.803 88.7475C347.803 89.175 347.466 89.505 347.031 89.505ZM347.586 99H346.483V90.9H347.586V99ZM353.547 90.6975C355.977 90.6975 356.794 92.7225 356.794 94.545V99H355.684V94.8675C355.684 93.0825 355.032 91.7475 353.337 91.7475C351.777 91.7475 350.937 92.85 350.937 94.68V99H349.827V90.9H350.824V92.025C351.424 91.1475 352.384 90.6975 353.547 90.6975ZM364.538 92.0175V90.9H365.52V98.8875C365.52 99.3525 365.498 99.765 365.43 100.178C365.138 101.985 363.938 102.825 361.958 102.825C360.713 102.825 359.453 102.3 358.763 101.04L359.76 100.485C360.203 101.385 361.103 101.753 361.958 101.753C363.713 101.753 364.418 100.778 364.41 98.8725V98.04C363.825 98.775 362.978 99.225 361.883 99.225C359.61 99.225 358.29 97.3725 358.29 94.9425C358.29 92.5275 359.618 90.675 361.838 90.675C363.038 90.675 363.945 91.1775 364.538 92.0175ZM361.995 98.1975C363.72 98.1975 364.538 96.8175 364.538 94.9425C364.538 93.0375 363.705 91.7025 362.018 91.7025C360.278 91.7025 359.46 93.1125 359.46 94.9425C359.46 96.7875 360.308 98.1975 361.995 98.1975ZM370.64 99.2175C368.742 99.2175 367.445 98.355 367.167 96.8925L368.292 96.705C368.525 97.6275 369.44 98.2125 370.7 98.2125C371.93 98.2125 372.687 97.6575 372.687 96.7725C372.687 96.0225 372.342 95.7975 370.287 95.2425C368.09 94.65 367.415 94.1175 367.415 92.985C367.415 91.605 368.66 90.675 370.49 90.675C372.32 90.675 373.655 91.6275 373.82 93.0375L372.695 93.24C372.537 92.2875 371.69 91.7025 370.475 91.68C369.327 91.6575 368.532 92.1675 368.532 92.9325C368.532 93.5775 368.99 93.8775 370.902 94.3575C373.137 94.9275 373.835 95.505 373.835 96.7575C373.835 98.2875 372.627 99.2175 370.64 99.2175ZM376.346 99.0825C375.911 99.0825 375.581 98.7525 375.581 98.325C375.581 97.89 375.911 97.56 376.346 97.56C376.781 97.56 377.118 97.89 377.118 98.325C377.118 98.7525 376.781 99.0825 376.346 99.0825ZM380.154 99.0825C379.719 99.0825 379.389 98.7525 379.389 98.325C379.389 97.89 379.719 97.56 380.154 97.56C380.589 97.56 380.927 97.89 380.927 98.325C380.927 98.7525 380.589 99.0825 380.154 99.0825ZM383.963 99.0825C383.528 99.0825 383.198 98.7525 383.198 98.325C383.198 97.89 383.528 97.56 383.963 97.56C384.398 97.56 384.735 97.89 384.735 98.325C384.735 98.7525 384.398 99.0825 383.963 99.0825Z" fill="black"/>
<defs>
<filter id="filter0_d_33_93" x="25.3008" y="21.929" width="11.751" height="11.011" filterUnits="userSpaceOnUse" color-interpolation-filters="sRGB">
<feFlood flood-opacity="0" result="BackgroundImageFix"/>
<feColorMatrix in="SourceAlpha" type="matrix" values="0 0 0 0 0 0 0 0 0 0 0 0 0 0 0 0 0 0 127 0" result="hardAlpha"/>
<feOffset dx="2"/>
<feComposite in2="hardAlpha" operator="out"/>
<feColorMatrix type="matrix" values="0 0 0 0 0.529412 0 0 0 0 0.831373 0 0 0 0 0.996078 0 0 0 1 0"/>
<feBlend mode="normal" in2="BackgroundImageFix" result="effect1_dropShadow_33_93"/>
<feBlend mode="normal" in="SourceGraphic" in2="effect1_dropShadow_33_93" result="shape"/>
</filter>
<clipPath id="clip0_33_93">
<rect x="20" y="17" width="20" height="20" rx="4" fill="white"/>
</clipPath>
</defs>
</svg>
